<mxfile host="app.diagrams.net" modified="2023-05-30T03:14:10.667Z" agent="Mozilla/5.0 (Windows NT 10.0; Win64; x64) AppleWebKit/537.36 (KHTML, like Gecko) Chrome/113.0.0.0 Safari/537.36" etag="4f2Q0oUvY1hap73hxuLu" version="21.3.5" type="device">
  <diagram name="Página-1" id="TWY0a2Ar13EHTjjQwqLc">
    <mxGraphModel dx="1077" dy="1748" grid="1" gridSize="10" guides="1" tooltips="1" connect="1" arrows="1" fold="1" page="1" pageScale="1" pageWidth="827" pageHeight="1169" math="0" shadow="0">
      <root>
        <mxCell id="0" />
        <mxCell id="1" parent="0" />
        <mxCell id="_dv_s_FVYi3r-EYFCqWO-1" value="&lt;font style=&quot;&quot;&gt;&lt;span style=&quot;font-size: 36px;&quot;&gt;π&lt;/span&gt;&lt;sub style=&quot;&quot;&gt;&lt;font style=&quot;font-size: 18px;&quot;&gt;(A&lt;sub style=&quot;&quot;&gt;1&lt;/sub&gt;)&lt;/font&gt;&lt;/sub&gt;&lt;/font&gt;" style="text;html=1;strokeColor=none;fillColor=none;align=center;verticalAlign=middle;whiteSpace=wrap;rounded=0;" vertex="1" parent="1">
          <mxGeometry x="340" y="-1070" width="120" height="50" as="geometry" />
        </mxCell>
        <mxCell id="_dv_s_FVYi3r-EYFCqWO-2" value="" style="endArrow=none;html=1;rounded=0;entryX=0.5;entryY=1;entryDx=0;entryDy=0;" edge="1" parent="1" target="_dv_s_FVYi3r-EYFCqWO-1">
          <mxGeometry width="50" height="50" relative="1" as="geometry">
            <mxPoint x="400" y="-920" as="sourcePoint" />
            <mxPoint x="399.58" y="-1010" as="targetPoint" />
          </mxGeometry>
        </mxCell>
        <mxCell id="_dv_s_FVYi3r-EYFCqWO-4" value="" style="triangle;whiteSpace=wrap;html=1;" vertex="1" parent="1">
          <mxGeometry x="380" y="-910" width="20" height="20" as="geometry" />
        </mxCell>
        <mxCell id="_dv_s_FVYi3r-EYFCqWO-5" value="" style="triangle;whiteSpace=wrap;html=1;rotation=-180;" vertex="1" parent="1">
          <mxGeometry x="400" y="-910" width="20" height="20" as="geometry" />
        </mxCell>
        <mxCell id="_dv_s_FVYi3r-EYFCqWO-6" value="&lt;font style=&quot;font-size: 24px;&quot;&gt;C&lt;/font&gt;&lt;font style=&quot;font-size: 20px;&quot;&gt;&lt;sub&gt;2&lt;/sub&gt;&lt;/font&gt;" style="text;html=1;align=center;verticalAlign=middle;resizable=0;points=[];autosize=1;strokeColor=none;fillColor=none;" vertex="1" parent="1">
          <mxGeometry x="414" y="-900" width="50" height="50" as="geometry" />
        </mxCell>
        <mxCell id="_dv_s_FVYi3r-EYFCqWO-9" value="" style="endArrow=none;html=1;rounded=0;exitX=0.334;exitY=-0.068;exitDx=0;exitDy=0;exitPerimeter=0;" edge="1" parent="1" source="_dv_s_FVYi3r-EYFCqWO-10">
          <mxGeometry width="50" height="50" relative="1" as="geometry">
            <mxPoint x="560" y="-680" as="sourcePoint" />
            <mxPoint x="430" y="-850" as="targetPoint" />
          </mxGeometry>
        </mxCell>
        <mxCell id="_dv_s_FVYi3r-EYFCqWO-10" value="&lt;font style=&quot;font-size: 24px;&quot;&gt;Ca&lt;/font&gt;" style="text;html=1;align=center;verticalAlign=middle;resizable=0;points=[];autosize=1;strokeColor=none;fillColor=none;" vertex="1" parent="1">
          <mxGeometry x="540" y="-680" width="50" height="40" as="geometry" />
        </mxCell>
        <mxCell id="_dv_s_FVYi3r-EYFCqWO-11" value="" style="endArrow=none;html=1;rounded=0;" edge="1" parent="1">
          <mxGeometry width="50" height="50" relative="1" as="geometry">
            <mxPoint x="324" y="-780" as="sourcePoint" />
            <mxPoint x="370" y="-850" as="targetPoint" />
          </mxGeometry>
        </mxCell>
        <mxCell id="_dv_s_FVYi3r-EYFCqWO-12" value="&lt;font style=&quot;&quot;&gt;&lt;span style=&quot;font-size: 36px;&quot;&gt;π&lt;/span&gt;&lt;sub style=&quot;&quot;&gt;&lt;font style=&quot;font-size: 18px;&quot;&gt;(A&lt;sub&gt;1&lt;/sub&gt;, f.title)&lt;/font&gt;&lt;/sub&gt;&lt;/font&gt;" style="text;html=1;strokeColor=none;fillColor=none;align=center;verticalAlign=middle;whiteSpace=wrap;rounded=0;" vertex="1" parent="1">
          <mxGeometry x="240" y="-790" width="150" height="50" as="geometry" />
        </mxCell>
        <mxCell id="_dv_s_FVYi3r-EYFCqWO-13" value="" style="endArrow=none;html=1;rounded=0;" edge="1" parent="1">
          <mxGeometry width="50" height="50" relative="1" as="geometry">
            <mxPoint x="250" y="-660" as="sourcePoint" />
            <mxPoint x="296" y="-730" as="targetPoint" />
          </mxGeometry>
        </mxCell>
        <mxCell id="_dv_s_FVYi3r-EYFCqWO-14" value="" style="triangle;whiteSpace=wrap;html=1;" vertex="1" parent="1">
          <mxGeometry x="220" y="-650" width="20" height="20" as="geometry" />
        </mxCell>
        <mxCell id="_dv_s_FVYi3r-EYFCqWO-15" value="" style="triangle;whiteSpace=wrap;html=1;rotation=-180;" vertex="1" parent="1">
          <mxGeometry x="240" y="-650" width="20" height="20" as="geometry" />
        </mxCell>
        <mxCell id="_dv_s_FVYi3r-EYFCqWO-16" value="&lt;font style=&quot;font-size: 24px;&quot;&gt;C&lt;/font&gt;&lt;font style=&quot;font-size: 20px;&quot;&gt;&lt;sub&gt;1&lt;/sub&gt;&lt;/font&gt;" style="text;html=1;align=center;verticalAlign=middle;resizable=0;points=[];autosize=1;strokeColor=none;fillColor=none;" vertex="1" parent="1">
          <mxGeometry x="254" y="-640" width="50" height="50" as="geometry" />
        </mxCell>
        <mxCell id="_dv_s_FVYi3r-EYFCqWO-18" value="" style="endArrow=none;html=1;rounded=0;" edge="1" parent="1">
          <mxGeometry width="50" height="50" relative="1" as="geometry">
            <mxPoint x="160" y="-530" as="sourcePoint" />
            <mxPoint x="206" y="-600" as="targetPoint" />
          </mxGeometry>
        </mxCell>
        <mxCell id="_dv_s_FVYi3r-EYFCqWO-19" value="" style="endArrow=none;html=1;rounded=0;" edge="1" parent="1">
          <mxGeometry width="50" height="50" relative="1" as="geometry">
            <mxPoint x="390" y="-410" as="sourcePoint" />
            <mxPoint x="260" y="-600" as="targetPoint" />
          </mxGeometry>
        </mxCell>
        <mxCell id="_dv_s_FVYi3r-EYFCqWO-20" value="&lt;span style=&quot;font-size: 24px;&quot;&gt;Fc&lt;/span&gt;" style="text;html=1;align=center;verticalAlign=middle;resizable=0;points=[];autosize=1;strokeColor=none;fillColor=none;" vertex="1" parent="1">
          <mxGeometry x="375" y="-410" width="50" height="40" as="geometry" />
        </mxCell>
        <mxCell id="_dv_s_FVYi3r-EYFCqWO-21" value="&lt;font style=&quot;&quot;&gt;&lt;span style=&quot;font-size: 36px;&quot;&gt;π&lt;/span&gt;&lt;sub style=&quot;&quot;&gt;&lt;font style=&quot;font-size: 18px;&quot;&gt;(A&lt;sub&gt;1&lt;/sub&gt;, f.title)&lt;/font&gt;&lt;/sub&gt;&lt;/font&gt;" style="text;html=1;strokeColor=none;fillColor=none;align=center;verticalAlign=middle;whiteSpace=wrap;rounded=0;" vertex="1" parent="1">
          <mxGeometry x="80" y="-540" width="150" height="50" as="geometry" />
        </mxCell>
        <mxCell id="_dv_s_FVYi3r-EYFCqWO-23" value="" style="endArrow=none;html=1;rounded=0;" edge="1" parent="1">
          <mxGeometry width="50" height="50" relative="1" as="geometry">
            <mxPoint x="80" y="-410" as="sourcePoint" />
            <mxPoint x="126" y="-480" as="targetPoint" />
          </mxGeometry>
        </mxCell>
        <mxCell id="_dv_s_FVYi3r-EYFCqWO-24" value="&lt;span style=&quot;font-size: 24px;&quot;&gt;F&lt;/span&gt;" style="text;html=1;align=center;verticalAlign=middle;resizable=0;points=[];autosize=1;strokeColor=none;fillColor=none;" vertex="1" parent="1">
          <mxGeometry x="50" y="-410" width="40" height="40" as="geometry" />
        </mxCell>
      </root>
    </mxGraphModel>
  </diagram>
</mxfile>
